<svg xmlns="http://www.w3.org/2000/svg" xmlns:xlink="http://www.w3.org/1999/xlink" version="1.1" width="256" height="256" viewBox="0 0 256 256" xml:space="preserve">

<defs>
</defs>
<g style="stroke: none; stroke-width: 0; stroke-dasharray: none; stroke-linecap: butt; stroke-linejoin: miter; stroke-miterlimit: 10; fill: none; fill-rule: nonzero; opacity: 1;" transform="translate(1.4065934065934016 1.4065934065934016) scale(2.81 2.81)" >
	<path d="M 5.321 0 l 7.222 81.003 L 44.951 90 l 32.498 -9.009 L 84.679 0 H 5.321 z M 69.615 19.223 l -0.453 5.036 l -0.199 2.233 h -0.032 H 45 h -0.034 h -14.02 l 0.908 10.173 h 13.112 H 45 h 20.382 h 2.677 l -0.242 2.668 l -2.335 26.155 l -0.149 1.678 L 45 72.802 v 0.002 l -0.046 0.013 l -20.351 -5.649 l -1.392 -15.599 h 4.596 h 5.376 l 0.707 7.923 l 11.064 2.988 l 0.009 -0.002 v -0.001 l 11.08 -2.991 l 1.153 -12.885 H 45 h -0.034 H 22.768 l -2.442 -27.377 l -0.238 -2.665 h 24.877 H 45 h 24.852 L 69.615 19.223 z" style="stroke: none; stroke-width: 1; stroke-dasharray: none; stroke-linecap: butt; stroke-linejoin: miter; stroke-miterlimit: 10; fill: rgb(255,255,255); fill-rule: nonzero; opacity: 1;" transform=" matrix(1 0 0 1 0 0) " stroke-linecap="round" />
</g>
</svg>